<svg xmlns="http://www.w3.org/2000/svg" viewBox="0 0 235.06 235.06"><defs><style>.cls-1{fill:#51b848;}.cls-1,.cls-2,.cls-3,.cls-4,.cls-5{stroke:#000;}.cls-1,.cls-3{stroke-linecap:round;}.cls-1,.cls-4,.cls-5{stroke-linejoin:round;}.cls-1,.cls-5{stroke-width:2px;}.cls-2,.cls-3{stroke-miterlimit:10;}.cls-2{stroke-width:0.25px;}.cls-3{fill:#d3d3d3;stroke-width:3px;}.cls-5{fill:none;}</style></defs><g id="Layer_2" data-name="Layer 2"><g id="Layer_1-2" data-name="Layer 1"><path class="cls-1" d="M184.84,215.7c-4.9-8-9.93-15.81-13.08-20.9-1.16-1.87-3.39-5.49-7.07-6.11-1.83-.3-3.17.28-5.3,1-3.81,1.24-7.84,1.63-11.73,2.57a144.73,144.73,0,0,1-21.7,3.86c-9.82.81-20.42,1.69-28.61-3.06-1.35-.78-5-3.07-10.55-5.75-1.25-.6-3.59-1.71-6.64-2.92a100.1,100.1,0,0,0-15.43-4.67c-8.74-2-8.29-.94-14.15-2.41s-13.83-3.47-20.73-10c-2.93-2.76-1.05-2-8.84-11.73-1.57-2-2.87-3.53-2.89-5.79,0-2.41,1.44-4.4,3.7-7.39A42.48,42.48,0,0,1,26,137.59c6.45-6.22,4.5-18.15,11.57-32C40.51,99.83,44.16,95.43,47.85,91a118,118,0,0,1,9.48-10.12A105.82,105.82,0,0,1,71.48,69c3-2.11,3.22-1.95,5.78-3.85,5.09-3.79,4.9-4.76,10.24-9.06a40.21,40.21,0,0,0,6.07-5.88c0-.05.17-.21.35-.44a52.09,52.09,0,0,0,4.93-7.5,63.19,63.19,0,0,1,3.54-5.79,18.19,18.19,0,0,1,4.82-3.75c11.94-6.9,10.83-7.38,16.39-9.75,6.41-2.72,9.62-2.82,12.48-4.72a8.5,8.5,0,0,1,3.78-1.49c1.51-.17,1.63.29,2.93.12,2.58-.33,3-2.24,5.15-2.29,1.32,0,1.25.66,3.21.88s2.52-.43,4.06-.16,2.1,1.11,3.37,2c2.62,1.78,4.59,1.34,6.71,2,7.52,2.38,8.86,16.18,9.08,18.44s0,3.79-.84,5.07c-1.2,1.71-3.72,2.92-3.72,3s.07,0,.08,0c.74-.33,6.9-.64,8.14,2a4.26,4.26,0,0,1,.3,1.11,5,5,0,0,1-.3,2.21c-.77,2-11.63,2.25-11.89,2.25-14.58.31-17,8.6-26.68,6.11-4.75-1.22-6.33-3.77-10.93-3.21-3,.36-4.94,1.77-8.68,4.5a48,48,0,0,0-12.21,13.17,54.47,54.47,0,0,0-3.18,5.88c-2.15,4.61-3.12,8.33-5.18,17.91-2.89,13.49-2.62,13.77-3.86,16.71-3.19,7.6-7,10.39-6.1,11.58,2.1,2.77,20.59-15.47,37.93-10.61,8.84,2.48,8.35,8.44,16.39,9.64a14.88,14.88,0,0,0,4.47,0h0c9.74-1.5,15.59-12.65,29.59-14.47,9.89-1.29,17.75,2.87,25.87,7.17,14.75,7.81,23.18,13,28.63,19.66a107.68,107.68,0,0,0,1.85-19.89A116.53,116.53,0,1,0,117.53,234.06c24,0,48.42-5,67.31-18.36m-29-44.85a52.8,52.8,0,0,1-15.91,2.09c-5-.11-12.36-.27-20.09-4.66a36.34,36.34,0,0,1-14-14.62l1.29,7.55a28.54,28.54,0,0,1-5.31-3.05A29.07,29.07,0,0,1,96,152.48a36.26,36.26,0,0,1-4-6.63,34.38,34.38,0,0,0,5.24,11,40,40,0,0,0,12.38,11.41,48.11,48.11,0,0,0,18,6.51A51.16,51.16,0,0,0,155.82,170.85Zm-35-44.67a53.33,53.33,0,0,1,6.53.42c2.34.33,4.63.87,9.11,1.93,3.39.81,4.64,1.16,4.71,1s-2.78-1.72-5.14-2.68a36.69,36.69,0,0,0-9.75-2.79,41.59,41.59,0,0,0-9.07-.23,20.88,20.88,0,0,0-6.68,1.2,18.53,18.53,0,0,0-5.57,3,42.74,42.74,0,0,1,6.86-1.5A51.74,51.74,0,0,1,120.79,126.18Zm-3.28,60.94a51.44,51.44,0,0,1-6.54-.43c-2.33-.32-4.62-.86-9.11-1.93-3.38-.8-4.64-1.16-4.71-1s2.78,1.71,5.14,2.68a37,37,0,0,0,9.75,2.78,42.14,42.14,0,0,0,9.07.24,21,21,0,0,0,6.68-1.2,18.41,18.41,0,0,0,5.57-3,42.66,42.66,0,0,1-6.85,1.5A52.81,52.81,0,0,1,117.51,187.12ZM74.69,147.26a53.07,53.07,0,0,1-8.16,3.82,51.77,51.77,0,0,1-6.18,2.17c-2.27.62-4.59,1-9.13,1.8-3.42.59-4.71.75-4.71,1s3.23.49,5.78.45a36.78,36.78,0,0,0,10.06-1.26,42.48,42.48,0,0,0,8.43-3.34,21.25,21.25,0,0,0,5.68-3.73,18.66,18.66,0,0,0,4-4.94A44.52,44.52,0,0,1,74.69,147.26Zm0,3.37A34.25,34.25,0,0,1,69.9,154,35.71,35.71,0,0,1,66.2,156c-1.38.64-2.81,1.14-5.62,2.13-2.09.74-2.9,1-2.9,1.12s2.12,0,3.73-.34A23.33,23.33,0,0,0,67.68,157a26.73,26.73,0,0,0,5-3,13.28,13.28,0,0,0,3.21-3,11.71,11.71,0,0,0,2-3.57A27.41,27.41,0,0,1,74.68,150.63Z"/><path class="cls-2" d="M45.15,148.94a14.17,14.17,0,0,1-5.12.87,5.5,5.5,0,0,1-3.56-1.32,7.43,7.43,0,0,1-2.82-3.61,12.61,12.61,0,0,1-.32-6.36c.24-1.82.77-4.29,1.14-4.54s.28.65.56,2.7a25.77,25.77,0,0,0,1,5.28,9.68,9.68,0,0,0,1.76,2.86,9.49,9.49,0,0,0,3.4,3A11.53,11.53,0,0,0,45.15,148.94Z"/><path class="cls-3" d="M77.88,147.42a11.71,11.71,0,0,1-2,3.57,13.28,13.28,0,0,1-3.21,3,26.73,26.73,0,0,1-5,3,23.33,23.33,0,0,1-6.27,1.89c-1.61.3-3.68.55-3.73.34s.81-.38,2.9-1.12c2.81-1,4.24-1.49,5.62-2.13A35.71,35.71,0,0,0,69.9,154a34.25,34.25,0,0,0,4.78-3.32A27.41,27.41,0,0,0,77.88,147.42Z"/><path class="cls-3" d="M74.69,147.26a44.52,44.52,0,0,0,5.72-4.07,18.66,18.66,0,0,1-4,4.94,21.25,21.25,0,0,1-5.68,3.73,42.48,42.48,0,0,1-8.43,3.34,36.78,36.78,0,0,1-10.06,1.26c-2.55,0-5.77-.12-5.78-.45s1.29-.37,4.71-1c4.54-.78,6.86-1.18,9.13-1.8a51.77,51.77,0,0,0,6.18-2.17A53.07,53.07,0,0,0,74.69,147.26Z"/><path class="cls-3" d="M126.51,186.8a42.66,42.66,0,0,0,6.85-1.5,18.41,18.41,0,0,1-5.57,3,21,21,0,0,1-6.68,1.2,42.14,42.14,0,0,1-9.07-.24,37,37,0,0,1-9.75-2.78c-2.36-1-5.26-2.37-5.14-2.68s1.33.16,4.71,1c4.49,1.07,6.78,1.61,9.11,1.93a51.44,51.44,0,0,0,6.54.43A52.81,52.81,0,0,0,126.51,186.8Z"/><path class="cls-3" d="M111.79,126.5a42.74,42.74,0,0,0-6.86,1.5,18.53,18.53,0,0,1,5.57-3,20.88,20.88,0,0,1,6.68-1.2,41.59,41.59,0,0,1,9.07.23,36.69,36.69,0,0,1,9.75,2.79c2.36,1,5.26,2.37,5.14,2.68s-1.32-.16-4.71-1c-4.48-1.06-6.77-1.6-9.11-1.93a53.33,53.33,0,0,0-6.53-.42A51.74,51.74,0,0,0,111.79,126.5Z"/><path class="cls-3" d="M139.91,172.94a52.8,52.8,0,0,0,15.91-2.09,51.16,51.16,0,0,1-28.12,3.94,48.11,48.11,0,0,1-18-6.51,40,40,0,0,1-12.38-11.41,34.38,34.38,0,0,1-5.24-11,36.26,36.26,0,0,0,4,6.63,29.07,29.07,0,0,0,5.78,5.68,28.54,28.54,0,0,0,5.31,3.05l-1.29-7.55a36.34,36.34,0,0,0,14,14.62C127.55,172.67,134.89,172.83,139.91,172.94Z"/><path d="M175.26,121.07c-2.13,0-4.21,0-6.27.2-1,.09-2.05.2-3.07.34s-2,.31-3,.54a56.53,56.53,0,0,0-5.93,1.61c-2,.63-3.89,1.39-5.92,2.12l-.13-.21a20.62,20.62,0,0,1,5.35-3.65,25.41,25.41,0,0,1,6.2-2,26.26,26.26,0,0,1,6.5-.44,22.72,22.72,0,0,1,6.34,1.25Z"/><path d="M147.87,124.63a9.91,9.91,0,0,1,2.55,0,10.87,10.87,0,0,1,2.46.51,11.44,11.44,0,0,1,2.3,1,8.13,8.13,0,0,1,2,1.53L157,128a12.9,12.9,0,0,1-2.46-.38,22.52,22.52,0,0,1-2.31-.64c-.76-.24-1.51-.52-2.26-.81a10.63,10.63,0,0,1-2.22-1.14Z"/><path class="cls-2" d="M141.14,129.5c-.07.19-1.32-.16-4.71-1-4.48-1.06-6.77-1.6-9.11-1.93a53.33,53.33,0,0,0-6.53-.42,51.74,51.74,0,0,0-9,.32,42.74,42.74,0,0,0-6.86,1.5,18.53,18.53,0,0,1,5.57-3,20.88,20.88,0,0,1,6.68-1.2,41.59,41.59,0,0,1,9.07.23,36.69,36.69,0,0,1,9.75,2.79C138.36,127.78,141.26,129.19,141.14,129.5Z"/><path class="cls-2" d="M133.36,185.3a18.41,18.41,0,0,1-5.57,3,21,21,0,0,1-6.68,1.2,42.14,42.14,0,0,1-9.07-.24,37,37,0,0,1-9.75-2.78c-2.36-1-5.26-2.37-5.14-2.68s1.33.16,4.71,1c4.49,1.07,6.78,1.61,9.11,1.93a51.44,51.44,0,0,0,6.54.43,52.81,52.81,0,0,0,9-.32A42.66,42.66,0,0,0,133.36,185.3Z"/><path class="cls-2" d="M80.41,143.19a18.66,18.66,0,0,1-4,4.94,21.25,21.25,0,0,1-5.68,3.73,42.48,42.48,0,0,1-8.43,3.34,36.78,36.78,0,0,1-10.06,1.26c-2.55,0-5.77-.12-5.78-.45s1.29-.37,4.71-1c4.54-.78,6.86-1.18,9.13-1.8a51.77,51.77,0,0,0,6.18-2.17,53.07,53.07,0,0,0,8.16-3.82A44.52,44.52,0,0,0,80.41,143.19Z"/><path class="cls-2" d="M77.88,147.42a11.71,11.71,0,0,1-2,3.57,13.28,13.28,0,0,1-3.21,3,26.73,26.73,0,0,1-5,3,23.33,23.33,0,0,1-6.27,1.89c-1.61.3-3.68.55-3.73.34s.81-.38,2.9-1.12c2.81-1,4.24-1.49,5.62-2.13A35.71,35.71,0,0,0,69.9,154a34.25,34.25,0,0,0,4.78-3.32A27.41,27.41,0,0,0,77.88,147.42Z"/><path d="M189.51,176.75a43.23,43.23,0,0,1-11.16-7.55,44.64,44.64,0,0,1-4.63-5c-1.44-1.77-2.67-3.69-3.91-5.51a59.72,59.72,0,0,0-3.86-5.23c-1.35-1.7-2.82-3.31-4.32-4.89-3-3.15-6.34-6.06-9.73-9l.13-.21A52.93,52.93,0,0,1,163.17,147a54.47,54.47,0,0,1,4.81,4.8,52.64,52.64,0,0,1,4.11,5.43c1.21,1.89,2.4,3.69,3.68,5.45a59.83,59.83,0,0,0,4.12,5,74.93,74.93,0,0,0,9.75,8.86Z"/><path class="cls-4" d="M155.82,170.85a51.16,51.16,0,0,1-28.12,3.94,48.11,48.11,0,0,1-18-6.51,40,40,0,0,1-12.38-11.41,34.38,34.38,0,0,1-5.24-11,36.26,36.26,0,0,0,4,6.63,29.07,29.07,0,0,0,5.78,5.68,28.54,28.54,0,0,0,5.31,3.05l-1.29-7.55a36.34,36.34,0,0,0,14,14.62c7.73,4.39,15.07,4.55,20.09,4.66A52.8,52.8,0,0,0,155.82,170.85Z"/><path class="cls-5" d="M77.88,147.42a11.71,11.71,0,0,1-2,3.57,13.28,13.28,0,0,1-3.21,3,26.73,26.73,0,0,1-5,3,23.33,23.33,0,0,1-6.27,1.89c-1.61.3-3.68.55-3.73.34s.81-.38,2.9-1.12c2.81-1,4.24-1.49,5.62-2.13A35.71,35.71,0,0,0,69.9,154a34.25,34.25,0,0,0,4.78-3.32A27.41,27.41,0,0,0,77.88,147.42Z"/><path class="cls-5" d="M80.41,143.19a18.66,18.66,0,0,1-4,4.94,21.25,21.25,0,0,1-5.68,3.73,42.48,42.48,0,0,1-8.43,3.34,36.78,36.78,0,0,1-10.06,1.26c-2.55,0-5.77-.12-5.78-.45s1.29-.37,4.71-1c4.54-.78,6.86-1.18,9.13-1.8a51.77,51.77,0,0,0,6.18-2.17,53.07,53.07,0,0,0,8.16-3.82A44.52,44.52,0,0,0,80.41,143.19Z"/><path class="cls-5" d="M133.36,185.3a18.41,18.41,0,0,1-5.57,3,21,21,0,0,1-6.68,1.2,42.14,42.14,0,0,1-9.07-.24,37,37,0,0,1-9.75-2.78c-2.36-1-5.26-2.37-5.14-2.68s1.33.16,4.71,1c4.49,1.07,6.78,1.61,9.11,1.93a51.44,51.44,0,0,0,6.54.43,52.81,52.81,0,0,0,9-.32A42.66,42.66,0,0,0,133.36,185.3Z"/><path class="cls-5" d="M141.14,129.5c-.07.19-1.32-.16-4.71-1-4.48-1.06-6.77-1.6-9.11-1.93a53.33,53.33,0,0,0-6.53-.42,51.74,51.74,0,0,0-9,.32,42.74,42.74,0,0,0-6.86,1.5,18.53,18.53,0,0,1,5.57-3,20.88,20.88,0,0,1,6.68-1.2,41.59,41.59,0,0,1,9.07.23,36.69,36.69,0,0,1,9.75,2.79C138.36,127.78,141.26,129.19,141.14,129.5Z"/><path class="cls-5" d="M155.82,170.85a51.16,51.16,0,0,1-28.12,3.94,48.11,48.11,0,0,1-18-6.51,40,40,0,0,1-12.38-11.41,34.38,34.38,0,0,1-5.24-11,36.26,36.26,0,0,0,4,6.63,29.07,29.07,0,0,0,5.78,5.68,28.54,28.54,0,0,0,5.31,3.05l-1.29-7.55a36.34,36.34,0,0,0,14,14.62c7.73,4.39,15.07,4.55,20.09,4.66A52.8,52.8,0,0,0,155.82,170.85Z"/></g></g></svg>