<?xml version="1.0" encoding="UTF-8"?>
<svg viewBox="0 0 290.90601 399.55704" xmlns="http://www.w3.org/2000/svg">
 <g transform="translate(-221.22 -170.99)">
  <path d="m355.04 170.99c-2.8278 0.0425-6.1099 0.41866-10.906 1.0692-19.813 2.6873-31.04 5.2601-31.702 7.2173-0.31365 0.92675-2.6231 1.6624-5.1322 1.6571-7.311-8e-3 -20.455 5.4352-25.287 10.478-3.5236 3.6778-4.6059 6.8-6.4153 20.529-0.34626 2.0821-0.58505 4.2084-0.74841 6.3618-0.0177 0.23063-0.0377 0.46407-0.0538 0.69495-1.081 9.3306-1.5487 16.484-1.0692 22.079-5e-3 0.0669 5e-3 0.14381 0 0.21384-0.0524 18.907 19.436 28.57 35.765 30.793 4.2463 2.1254 7.952 2.0035 11.44 0.96235 3.6069 0.19096 5.4508-0.6979 9.4626-3.1008 2.8153-1.6863 5.53-2.7955 8.3933-3.3146 2.887 2.2213 6.7248 1.3369 9.9971-0.42767 6.2198-0.57827 9.7812-3.2333 11.655-8.6071l1.39-3.9561c6.5134 13.419 8.0969 29.251 10.96 43.731 0.42325 6.355 0.44844 12.679 0.26708 19.032-0.20768 4.1072-0.50996 8.8422-0.90875 14.916-0.37612 5.7284-0.68198 11.258-1.0157 16.787-0.1616 2.6773-0.34129 5.4853-0.4812 7.9122-0.11729 2.0172-0.23596 4.023-0.32061 6.041-0.0184 0.40994-0.0387 0.81974-0.0562 1.2298-0.1539 2.9258-0.37657 6.9207-0.42762 8.3931l-0.26747 7.7518c-0.33542 0.25512-0.72688 0.65721-1.1227 1.3365l-3.2615-3.8491c-10.168-12.012-17.024-15.507-34.375-17.428-15.405-1.7059-25.098 2.4446-41.005 17.642l-13.312 12.724-5.7203-2.9402c-6.2949-3.2582-40.038-14.381-43.624-14.381-1.2501 0-2.2454 0.69305-2.2454 1.497s7.4631 2.7297 14.755 4.865c6.5346 1.9342 11.937 4.5574 21.224 8.1258 3.7218 1.3564 5.4359 1.9462 7.538 2.7266 1.9047 2.9888 10.658 12.339 11.815 29.778 8.9477-40.718 32.567-58.45 51.75-56.08 4.3592 0.85635 3.8225 0.76699 6.4688 1.3902 13.032 3.1751 14.589 8.1192 24.11 14.488 2.944 4.2203 3.8652 6.1412 4.7046 6.7893 4.1354 5.6764 2.361 11.664 11.655 25.608 9.0321 10.535 14.456 20.019 24.645 24.806 49.271 15.811 89.908-20.769 70.408-17.589-58.831 9.5933-91.645-103.21-80.619-151.03-3.5232-20.954 28.245 23.757 18.07 1.8176-6.0088-15.217-17.676-27.575-24.966-41.913-8.0408-15.414-11.118 1.0984-18.124 8.9813-2.6133 10.457-17.235-1.7669-14.327 5.0254 2.0039 2.264 3.7162 4.6516 5.2388 7.1638-0.78184 2.0787-2.6132 6.7517-5.9875 8.0191-1.7428 1.2635-3.3127 2.0345-4.8111 2.566-1.8737-7.8053-7.6425-18.657-9.5694-27.051-16.704-17.017-1.9692 14.624-4.3307 23.469-2.2993 18.471-9.6073-5.602-10.478-11.815-3.5607-11.062-1.0376-44.102-19.887-29.029-0.71063 5.2685 8.7992 24.824 5.9876 36.407 0.77966 18.443-5.5011-2.4821-5.7208-9.2486-2.6119-4.8532-1.6307-33.206-13.044-44.105-1.9999 2.1302-4.6845 3.6454-6.7361 3.956-0.0441-0.60904-0.0836-1.254-0.21383-2.1384-0.58806-4.0074 0.11581-6.1767 2.7266-8.3934 4.8967-4.1338 14.246-6.1741 19.888-7.2706 2.6898 0 5.3153-0.66952 5.8266-1.4969s2.4865-1.9094 4.3843-2.4058 16.723-4.3646 29.403-5.6134c9.2443-0.9104 13.596-0.39724 22.935 2.6196 19.731 6.3745 23.67 9.0429 28.013 19.192 2.1359 4.9909 7.654 16.873 12.242 26.41s8.3394 17.812 8.3394 18.39 1.1668 2.4164 2.6202 4.063 8.2369 11.462 15.076 21.812 17.44 26.132 23.522 35.07 11.995 18.177 13.151 20.529 4.0292 7.3562 6.3623 11.12c10.796 17.419 19.153 41.703 21.331 61.854 0.86426 7.9979 3.045 16.917 5.0786 20.903 3.7077 7.2671 4.7549 19.783 1.8178 21.598-0.75889 0.46864-1.3818 1.6631-1.604 2.8869-3.5202 4.6055-8.7047 13.839-18.497 17.428-33.58 13.655-94.347 7.555-107.03 0.16068 22.494 20.799 29.042 22.189 30.793 40.31-20.107 2.0657-101.64 4.018-115.48-17.428 0.93747-17.098 58.076-15.339 65.543-57.364-9.15 10.653-38.105 58.284-97.085 16.519-7.7081-5.4581-66.987-18.008-15.236 18.391-8.056 12.45-27.413 11.372-27.372 25.928l0.21384 84.415 0.2673-0.37396c0.45724 4.3272 8.3986-2.4615 16.947-19.085l8.233-15.985h0.53461c18.687 1.2399 36.927 6.1529 55.386 9.0353 8.2315 0.43767 16.458 0.27806 24.645-0.42762 0.33192-0.0228 0.68111-0.0797 1.0162-0.10418 0.97934-0.0906 1.962-0.16212 2.9397-0.26724 0.47515-0.0444 0.96244-0.1051 1.4438-0.1604 4.9349-0.53452 10.195-1.2787 16.092-2.2987 28.041-4.8518 65.23-20.517 90.883-38.278 8.978-6.2161 22.242-14.078 29.457-17.482 17.572-8.2888 35.957-26.315 40.149-39.294 3.813-11.806 3.6215-18.922-0.80222-28.922-2.0221-4.5711-4.2719-14.096-5.0251-21.17-2.0281-19.048-10.62-43.678-21.224-60.785-2.3324-3.7637-5.2048-8.7678-6.3615-11.12s-7.0688-11.591-13.151-20.529-16.659-24.72-23.523-35.07-13.533-20.358-14.809-22.24-6.7064-12.659-12.029-23.95c-16.378-34.744-16.875-35.608-24.164-39.668-3.737-2.0813-12.056-5.4662-18.497-7.5378-6.6898-2.1512-10.096-3.0144-14.809-2.9405zm-69.662 55.225 1.4531 19.636c-2.403 11.893-5.8266-15.762-1.4531-19.636z"/>
 </g>
</svg>
